<?xml version="1.0" encoding="utf-8"?>
<svg id="master-artboard" viewBox="0 0 1400 980" version="1.1" xmlns="http://www.w3.org/2000/svg" x="0px" y="0px" style="enable-background:new 0 0 1400 980;" width="1400px" height="980px">


<path class="st2" d="M1143.1,250c-8.6,0-17.7,2.9-23.7,7.1c0,0-5.7-26.5,0-32.1c19.1-19.1,88.9-19.1,108,0c5.3,5.3,0,29.9,0,29.9&#10;&#9;&#9;c-4-2.8-9.8-4.9-16.8-4.9H1143.1z" style="fill: rgb(232, 136, 93);" transform="matrix(1, 0, 0, 1, -2.842170943040401e-14, 0)"/><path d="M 1133 199 H 1211 V 217 H 1133 V 199 Z" class="st3" style="fill: rgb(249, 154, 107);" transform="matrix(1, 0, 0, 1, -2.842170943040401e-14, 0)"/><path class="st4" d="M1219,192c0-6.1-4.9-11-11-11h-71c-6.1,0-11,4.9-11,11l0,0c0,6.1,4.9,11,11,11h71&#10;&#9;&#9;C1214.1,203,1219,198.1,1219,192L1219,192z" style="fill: rgb(255, 195, 169);" transform="matrix(1, 0, 0, 1, -2.842170943040401e-14, 0)"/><path class="st2" d="M1221.5,424.6c-3.3,0.9-7,1.4-10.9,1.4h-67.5c-24.9,0-43.1-20.5-43.1-45.3V371h44&#10;&#9;&#9;&#9;C1162.9,399.5,1190.3,419.2,1221.5,424.6z" style="fill: rgb(232, 136, 93);" transform="matrix(1, 0, 0, 1, -5.684341886080802e-14, 0)"/><path class="st2" d="M1118.9,249.3c-1.4,9.1-2.1,18.6-2.1,28.2c0,6.3,0.4,12.4,1,18.5H1100v-9.1&#10;&#9;&#9;&#9;C1100,271.1,1107.6,257.3,1118.9,249.3z" style="fill: rgb(232, 136, 93);" transform="matrix(1, 0, 0, 1, -5.684341886080802e-14, 0)"/><path class="st3" d="M1143.1,242h67.5c7,0,11.9,1.6,17.3,4.4c14,7.3,21.1,22.6,21.1,40.5v9.1h-131.2c-0.6-6.1-0.9-12.2-0.9-18.5&#10;&#9;&#9;&#9;c0-9.7,0.8-19.1,2.2-28.2c0.3-0.2,0.5-0.4,0.8-0.6C1126.1,244.4,1134.4,242,1143.1,242z" style="fill: rgb(249, 154, 107);" transform="matrix(1, 0, 0, 1, -5.684341886080802e-14, 0)"/><path class="st3" d="M1144,371h105v9.7c0,21-9.7,38.8-27.7,43.9C1190.1,419.2,1162.9,399.5,1144,371z" style="fill: rgb(249, 154, 107);" transform="matrix(1, 0, 0, 1, -5.684341886080802e-14, 0)"/><path class="st5" d="M1144,371h-44v-75h17.8C1120.7,324.2,1130,350,1144,371z" style="fill: rgb(242, 178, 156);" transform="matrix(1, 0, 0, 1, -5.684341886080802e-14, 0)"/><path class="st4" d="M1249,371h-105c-14-21-23.3-46.8-26.2-75H1249V371z" style="fill: rgb(255, 195, 169);" transform="matrix(1, 0, 0, 1, -5.684341886080802e-14, 0)"/><path class="st6" d="M1131.4,183c0-11,4-20.4,10.6-27.8c9.4,15.1,32.5,25.8,59.4,25.8c4.6,0,9-0.3,13.3-0.9c0.1,1,0.1,1.9,0.1,2.9&#10;&#9;&#9;&#9;H1131.4z" style="fill: rgb(239, 239, 239);" transform="matrix(1, 0, 0, 1, -5.684341886080802e-14, 0)"/><path class="st7" d="M1142,155.2c7.6-8.6,18.8-14,31.1-14c22.1,0,40.1,17.1,41.6,38.8c-4.3,0.6-8.8,0.9-13.3,0.9&#10;&#9;&#9;&#9;C1174.4,181,1151.4,170.3,1142,155.2z" style="fill: rgb(255, 255, 255);" transform="matrix(1, 0, 0, 1, -5.684341886080802e-14, 0)"/>
<path d="M 193.8000030517578 366 L 241.8000030517578 366 L 261.1000061035156 338 L 174.5 338 Z" class="st8" style="fill: rgb(224, 141, 167);" transform="matrix(1, 0, 0, 1, -2.842170943040401e-14, 0)"/><path d="M 194.5 400 L 241 400 L 244 364 L 191.60000610351562 364 Z" class="st9" style="fill: rgb(243, 255, 249);" transform="matrix(1, 0, 0, 1, -2.842170943040401e-14, 0)"/><path d="M 152 93 L 283.6000061035156 93 L 286.6000061035156 66 L 149 66 Z" class="st10" style="fill: rgb(252, 232, 232);" transform="matrix(1, 0, 0, 1, -2.842170943040401e-14, 0)"/><path class="st11" d="M162.8,86h2.4c-0.3,17.9-0.1,37-0.1,56.9c0,91.1,45.5,166.9,105.5,182.4l-0.2,2.9c-0.4,6.5-6,10.9-12.6,10.9&#10;&#9;&#9;&#9;h-80.2c-6.5,0-12.2-4.4-12.6-10.9L151.7,94.4C151.3,87.9,156.3,86,162.8,86z" style="fill: rgb(242, 162, 187);" transform="matrix(1, 0, 0, 1, -5.684341886080802e-14, 0)"/><path class="st12" d="M165.1,142.9c0-19.8-0.1-38.9,0.1-56.9h107.5c6.5,0,11.6,1.9,11.2,8.4l-13.3,230.8&#10;&#9;&#9;&#9;C210.7,309.8,165.1,234,165.1,142.9z" style="fill: rgb(255, 176, 193);" transform="matrix(1, 0, 0, 1, -5.684341886080802e-14, 0)"/><path d="M 235.60000610351562 364 L 232.60000610351562 400 L 228.10000610351562 400 L 230.3000030517578 364 Z" class="st13" style="fill: none;" transform="matrix(1, 0, 0, 1, -5.684341886080802e-14, 0)"/><path d="M 205.5 364 L 207.60000610351562 400 L 203.10000610351562 400 L 200.10000610351562 364 Z" class="st13" style="fill: none;" transform="matrix(1, 0, 0, 1, -5.684341886080802e-14, 0)"/><path d="M 195.5 364 L 198.60000610351562 400 L 194.5 400 L 191.60000610351562 364 Z" class="st13" style="fill: none;" transform="matrix(1, 0, 0, 1, -5.684341886080802e-14, 0)"/><path d="M 225.6999969482422 364 L 223.60000610351562 400 L 220.3000030517578 400 L 220 364 Z" class="st13" style="fill: none;" transform="matrix(1, 0, 0, 1, -5.684341886080802e-14, 0)"/><path d="M 215.39999389648438 364 L 215.8000030517578 400 L 212.1999969482422 400 L 210.10000610351562 364 Z" class="st13" style="fill: none;" transform="matrix(1, 0, 0, 1, -5.684341886080802e-14, 0)"/><path d="M 244 364 L 241 400 L 237.1999969482422 400 L 240.1999969482422 364 Z" class="st13" style="fill: none;" transform="matrix(1, 0, 0, 1, -5.684341886080802e-14, 0)"/><path d="M 240.1999969482422 364 L 237.1999969482422 400 L 232.60000610351562 400 L 235.60000610351562 364 Z" class="st14" style="fill: rgb(184, 216, 199);" transform="matrix(1, 0, 0, 1, -5.684341886080802e-14, 0)"/><path d="M 230.3000030517578 364 L 228.10000610351562 400 L 223.60000610351562 400 L 225.6999969482422 364 Z" class="st14" style="fill: rgb(184, 216, 199);" transform="matrix(1, 0, 0, 1, -5.684341886080802e-14, 0)"/><path d="M 210.10000610351562 364 L 212.1999969482422 400 L 207.60000610351562 400 L 205.5 364 Z" class="st14" style="fill: rgb(184, 216, 199);" transform="matrix(1, 0, 0, 1, -5.684341886080802e-14, 0)"/><path d="M 220 364 L 220.3000030517578 400 L 215.8000030517578 400 L 215.39999389648438 364 Z" class="st14" style="fill: rgb(184, 216, 199);" transform="matrix(1, 0, 0, 1, -5.684341886080802e-14, 0)"/><path d="M 200.10000610351562 364 L 203.10000610351562 400 L 198.60000610351562 400 L 195.5 364 Z" class="st14" style="fill: rgb(184, 216, 199);" transform="matrix(1, 0, 0, 1, -5.684341886080802e-14, 0)"/><path class="st7" d="M199.4,163.7l4.6-0.7c6.6-1.1,8.6,10.3,15,10.3c6.7,0,8.9-11.6,15.7-10.1l4.6,1c7.6,1.7,12.6,10.1,11.2,18.9&#10;&#9;&#9;&#9;l-9.4,35.9c-1.3,8-5.2,13.5-12.1,13.2c-1.3-4.1-2.2-19.5-5.1-23.2c-3.1-4-6.9-5.4-11.2,1.1c-1.8,2.7-2.5,16.2-4.4,22.1&#10;&#9;&#9;&#9;c-7.6,1-12.1-5.1-13.2-13.9l-7.8-36.1C186.3,173.1,191.7,165,199.4,163.7z" style="fill: rgb(255, 255, 255);" transform="matrix(1, 0, 0, 1, -5.684341886080802e-14, 0)"/><path d="M 183.10000610351562 163.6999969482422 L 186.8000030517578 161.3000030517578 L 190.89999389648438 163.10000610351562 L 189.8000030517578 158.8000030517578 L 192.6999969482422 155.5 L 188.3000030517578 155.1999969482422 L 186 151.39999389648438 L 184.39999389648438 155.5 L 180.10000610351562 156.39999389648438 L 183.5 159.3000030517578 Z" class="st7" style="fill: rgb(255, 255, 255);" transform="matrix(1, 0, 0, 1, -5.684341886080802e-14, 0)"/>
<path class="st15" d="M584,177c0-3.9-3.1-7-7-7h-94c-3.9,0-7,3.1-7,7v42c0,3.9,3.1,7,7,7h94c3.9,0,7-3.1,7-7V177z" style="fill: rgb(168, 140, 175);" transform="matrix(1, 0, 0, 1, -2.842170943040401e-14, 0)"/><path class="st15" d="M570,158c0-3.9-3.1-7-7-7h-65c-3.9,0-7,3.1-7,7v28c0,3.9,3.1,7,7,7h65c3.9,0,7-3.1,7-7V158z" style="fill: rgb(168, 140, 175);" transform="matrix(1, 0, 0, 1, -2.842170943040401e-14, 0)"/><path class="st16" d="M510,226h-26.6c-3.8,0-7.4-3.1-7.4-7v-42c0-3.9,3.5-7,7.4-7h7.6v-12c0-3.9,3.5-7,7.4-7H510v19l-8.6,0.1&#10;&#9;&#9;l0.2,39.7" style="fill: rgb(149, 114, 158);" transform="matrix(1, 0, 0, 1, -2.842170943040401e-14, 0)"/><path d="M 538.1 126 A 8.1 8.1 0 0 1 530 134.1 A 8.1 8.1 0 0 1 521.9 126 A 8.1 8.1 0 0 1 530 117.9 A 8.1 8.1 0 0 1 538.1 126 Z" class="st15" style="fill: rgb(168, 140, 175);" transform="matrix(1, 0, 0, 1, -2.842170943040401e-14, 0)"/><path class="st15" d="M509.3,87h42.5c0,4-0.5,5-1.5,7h-39.5C509.9,92,509.3,91,509.3,87z" style="fill: rgb(168, 140, 175);" transform="matrix(1, 0, 0, 1, -5.684341886080802e-14, 0)"/><path class="st17" d="M495,87v65h70V87h-14.7c-3.1,9-10.8,16.3-19.7,16.3c-9,0-16.6-7.3-19.7-16.3H495z M513.7,126&#10;&#9;&#9;&#9;c0-9,7.3-16.3,16.2-16.3c9,0,16.2,7.3,16.2,16.3c0,9-7.3,16.2-16.2,16.2C521,142.3,513.7,135,513.7,126z" style="fill: rgb(219, 188, 226);" transform="matrix(1, 0, 0, 1, -5.684341886080802e-14, 0)"/><path class="st18" d="M448.6,218.1c-6,15.7-9.2,32.7-9.2,50.5c0,79.2,64.8,143.4,144.7,143.4c12.2,0,24-1.5,35.3-4.3&#10;&#9;&#9;&#9;c-5.7,6.8-12.1,13-19,18.3H455.8c-31.1-24-51.4-65-51.4-107.7C404.3,279,421.5,242.6,448.6,218.1z" style="fill: rgb(206, 163, 216);" transform="matrix(1, 0, 0, 1, -5.684341886080802e-14, 0)"/><path class="st17" d="M439.4,268.6c0-17.8,3.3-34.8,9.2-50.5c7.2-6.5,15.1-12.2,23.5-16.9c16.8-9.3,35.8-7.6,56-7.6&#10;&#9;&#9;&#9;c23,0,44.6-0.1,63,11.8c36.4,23.4,60.7,66.1,60.7,112.9c0,33.2-12.3,65.4-32.4,89.3c-11.3,2.8-23.1,4.3-35.3,4.3&#10;&#9;&#9;&#9;C504.2,412,439.4,347.8,439.4,268.6z" style="fill: rgb(219, 188, 226);" transform="matrix(1, 0, 0, 1, -5.684341886080802e-14, 0)"/>
<path class="st19" d="M924,156.5c0-4.1-3.4-7.5-7.5-7.5h-101c-4.1,0-7.5,3.4-7.5,7.5v23c0,4.1,3.4,7.5,7.5,7.5h101&#10;&#9;&#9;c4.1,0,7.5-3.4,7.5-7.5V156.5z" style="fill: rgb(208, 252, 243);" transform="matrix(1, 0, 0, 1, -2.842170943040401e-14, 0)"/><path d="M 853 90 H 880 V 149 H 853 V 90 Z" class="st20" style="fill: rgb(150, 224, 212);" transform="matrix(1, 0, 0, 1, -2.842170943040401e-14, 0)"/><path d="M 853 90 H 866 V 149 H 853 V 90 Z" class="st21" style="fill: rgb(131, 204, 190);" transform="matrix(1, 0, 0, 1, -2.842170943040401e-14, 0)"/><path class="st6" d="M936.5,105.6c-0.7,1.9-3,3.4-5.1,3.4L820,120c-2.1,0-4-1.5-4-3.6V93.9c0-2.1,2.2-3.9,4.2-3.9h122.5&#10;&#9;&#9;c2.1,0,3.2,1.6,2.4,3.6L936.5,105.6z" style="fill: rgb(239, 239, 239);" transform="matrix(1, 0, 0, 1, -2.842170943040401e-14, 0)"/><path class="st7" d="M816,111V93.9c0-2.1,2.2-3.9,4.2-3.9h122.5c2.1,0,3,1.6,2.2,3.6" style="fill: rgb(255, 255, 255);" transform="matrix(1, 0, 0, 1, -2.842170943040401e-14, 0)"/><path class="st22" d="M836.2,187c0,0-12.3-15.5,0.2-38h-20.5c-4.1,0-7.9,3.4-7.9,7.5v23c0,4.1,3.7,7.5,7.9,7.5H836" style="fill: rgb(186, 232, 220);" transform="matrix(1, 0, 0, 1, -2.842170943040401e-14, 0)"/><path class="st21" d="M787.4,410.9l13.1-210c0.5-8.2,7.7-14.9,15.9-14.9h1c-0.7,9.5-1.1,19.1-1.1,28.9&#10;&#9;&#9;&#9;c0,91.4,33.2,170.9,82.1,211.1h-97C793.2,426,786.9,419.1,787.4,410.9z" style="fill: rgb(131, 204, 190);" transform="matrix(1, 0, 0, 1, -5.684341886080802e-14, 0)"/><path class="st20" d="M816.4,214.9c0-9.8,0.4-19.4,1.1-28.9h100.2c8.2,0,15.4,6.7,15.9,14.9l13.1,210c0.5,8.2-5.8,15.1-14.1,15.1&#10;&#9;&#9;&#9;h-34.3C849.6,385.7,816.4,306.3,816.4,214.9z" style="fill: rgb(150, 224, 212);" transform="matrix(1, 0, 0, 1, -5.684341886080802e-14, 0)"/>
<path class="st23" d="M421,697.8c0-2.1-1.7-3.8-3.8-3.8h-82.5c-2.1,0-3.8,1.7-3.8,3.8v18.5c0,2.1,1.7,3.8,3.8,3.8h82.5&#10;&#9;&#9;c2.1,0,3.8-1.7,3.8-3.8V697.8z" style="fill: rgb(224, 217, 169);" transform="matrix(1, 0, 0, 1, -2.842170943040401e-14, 0)"/><path class="st24" d="M353,648v46h45v-46h-7v11h-31v-11H353z M368.3,675.4c0-4.2,3.4-7.6,7.6-7.6c4.2,0,7.6,3.4,7.6,7.6&#10;&#9;&#9;c0,4.2-3.4,7.6-7.6,7.6C371.7,683,368.3,679.6,368.3,675.4z" style="fill: rgb(244, 243, 237);" transform="matrix(1, 0, 0, 1, -2.842170943040401e-14, 0)"/><path d="M 360 640 H 391 V 651 H 360 V 640 Z" class="st24" style="fill: rgb(244, 243, 237);" transform="matrix(1, 0, 0, 1, -2.842170943040401e-14, 0)"/><path class="st25" d="M259.4,719h4.3c0.6,108.1,87.3,195.6,194.4,195.6c15.6,0,31-1.9,45-5.3v1.8c0,8.3-6.3,15-14.6,15h-229&#10;&#9;&#9;&#9;c-8.3,0-15.4-6.7-15.4-15V734C244,725.7,251.1,719,259.4,719z" style="fill: rgb(249, 234, 98);" transform="matrix(1, 0, 0, 1, -5.684341886080802e-14, 0)"/><path class="st26" d="M263.6,719h224.7c8.3,0,14.6,6.7,14.6,15v175.2c-14,3.5-29.4,5.3-45,5.3C350.9,914.6,264.2,827.1,263.6,719z&#10;&#9;&#9;&#9;" style="fill: rgb(255, 255, 108);" transform="matrix(1, 0, 0, 1, -5.684341886080802e-14, 0)"/>
<path class="st8" d="M736.3,568c-4,0-6.3,0.6-6.3,1.7v22c0,1,2.4,1.4,6.3,1.4h8.1c4,0,7.6-0.3,7.6-1.4v-22c0-1.1-3.6-1.7-7.6-1.7&#10;&#9;&#9;H736.3z" style="fill: rgb(224, 141, 167);" transform="matrix(1, 0, 0, 1, -2.842170943040401e-14, 0)"/><path class="st8" d="M790,595c0-2.2-1.8-4-4-4h-86c-2.2,0-4,1.8-4,4v44c0,2.2,1.8,4,4,4h86c2.2,0,4-1.8,4-4V595z" style="fill: rgb(224, 141, 167);" transform="matrix(1, 0, 0, 1, -5.684341886080802e-14, 0)"/><path class="st27" d="M786,598.7c0-2.1-1.7-3.7-3.8-3.7h-3.5c-2.1,0-3.8,1.7-3.8,3.7v37.5c0,2.1,1.7,3.7,3.8,3.7h3.5&#10;&#9;&#9;&#9;c2.1,0,3.8-1.7,3.8-3.7V598.7z" style="fill: rgb(255, 192, 209);" transform="matrix(1, 0, 0, 1, -5.684341886080802e-14, 0)"/><path class="st27" d="M760,636.3c0,2.1,2.1,3.7,4.1,3.7h3.5c2.1,0,3.4-1.7,3.4-3.7v-37.5c0-2.1-1.3-3.7-3.4-3.7h-3.5&#10;&#9;&#9;&#9;c-2.1,0-4.1,1.7-4.1,3.7V636.3z" style="fill: rgb(255, 192, 209);" transform="matrix(1, 0, 0, 1, -5.684341886080802e-14, 0)"/><path class="st27" d="M756,598.7c0-2.1-1.7-3.7-3.8-3.7h-3.5c-2.1,0-3.8,1.7-3.8,3.7v37.5c0,2.1,1.7,3.7,3.8,3.7h3.5&#10;&#9;&#9;&#9;c2.1,0,3.8-1.7,3.8-3.7V598.7z" style="fill: rgb(255, 192, 209);" transform="matrix(1, 0, 0, 1, -5.684341886080802e-14, 0)"/><path class="st27" d="M741,598.7c0-2.1-1.7-3.7-3.8-3.7h-3.5c-2.1,0-3.8,1.7-3.8,3.7v37.5c0,2.1,1.7,3.7,3.8,3.7h3.5&#10;&#9;&#9;&#9;c2.1,0,3.8-1.7,3.8-3.7V598.7z" style="fill: rgb(255, 192, 209);" transform="matrix(1, 0, 0, 1, -5.684341886080802e-14, 0)"/><path class="st27" d="M726,598.7c0-2.1-1.7-3.7-3.8-3.7h-3.5c-2.1,0-3.8,1.7-3.8,3.7v37.5c0,2.1,1.7,3.7,3.8,3.7h3.5&#10;&#9;&#9;&#9;c2.1,0,3.8-1.7,3.8-3.7V598.7z" style="fill: rgb(255, 192, 209);" transform="matrix(1, 0, 0, 1, -5.684341886080802e-14, 0)"/><path class="st27" d="M711,598.7c0-2.1-1.7-3.7-3.8-3.7h-3.5c-2.1,0-3.8,1.7-3.8,3.7v37.5c0,2.1,1.7,3.7,3.8,3.7h3.5&#10;&#9;&#9;&#9;c2.1,0,3.8-1.7,3.8-3.7V598.7z" style="fill: rgb(255, 192, 209);" transform="matrix(1, 0, 0, 1, -5.684341886080802e-14, 0)"/><path class="st12" d="M691.6,569H811v-10.7c0,0-80.3-33.4-115.9-6.5C695.1,551.8,686,564,691.6,569z" style="fill: rgb(255, 176, 193);" transform="matrix(1, 0, 0, 1, -2.842170943040401e-14, 0)"/><path class="st11" d="M671,656.9c0-8.2,6.7-14.9,15-14.9h9.1c-3.7,20.6-5.8,42.4-5.8,65c0,104.6,43.1,192.7,101.8,219H686&#10;&#9;&#9;&#9;c-8.2,0-15-6.2-15-14.5c-9.5-80.7-11.2-80.2-11.2-127.2C659.8,737.3,661.5,737.6,671,656.9z" style="fill: rgb(242, 162, 187);" transform="matrix(1, 0, 0, 1, -5.684341886080802e-14, 0)"/><path class="st12" d="M689.4,707c0-22.6,2-44.4,5.8-65h103.4c8.3,0,15,6.8,15,15c9.5,80.7,11.2,80.5,11.2,127.5&#10;&#9;&#9;&#9;c0,47-1.7,46.3-11.2,127c0,8.2-6.7,14.5-15,14.5h-7.3C732.5,899.7,689.4,811.6,689.4,707z" style="fill: rgb(255, 176, 193);" transform="matrix(1, 0, 0, 1, -5.684341886080802e-14, 0)"/>
<path d="M 978 583 H 997 V 610 H 978 V 583 Z" class="st28" style="fill: rgb(160, 212, 232);" transform="matrix(1, 0, 0, 1, -2.842170943040401e-14, 0)"/><path class="st29" d="M1004,614c0-2.1,3.4-3.7,7.5-3.7l0,0c4.1,0,7.5,1.7,7.5,3.7v45c0,2.1-3.4,3.8-7.5,3.8l0,0&#10;&#9;&#9;c-4.1,0-7.5-1.7-7.5-3.8V614z" style="fill: rgb(99, 186, 206);" transform="matrix(1, 0, 0, 1, -2.842170943040401e-14, 0)"/><path class="st29" d="M1035,666.7c0,5.2-0.2,9.3,5.8,9.3h75c6,0,5.2-4.2,5.2-9.3v-0.3c0-5.2,0.8-9.3-5.2-9.3h-75&#10;&#9;&#9;c-6,0-5.8,4.2-5.8,9.3V666.7z" style="fill: rgb(99, 186, 206);" transform="matrix(1, 0, 0, 1, -2.842170943040401e-14, 0)"/><path class="st7" d="M1000.9,579h32.5h19.7h0h14.9h37.2l-0.3,0v0v0.1l39.5,61.2c3.1,5.4,0.7,9.6-5.5,9.6H1105v7h-52v-9l0,0l-14-32&#10;&#9;&#9;h-38.1c-4.1,0-6.9-3-6.9-7.1v-22.3C994,582.4,996.8,579,1000.9,579z" style="fill: rgb(255, 255, 255);" transform="matrix(1, 0, 0, 1, -2.842170943040401e-14, 0)"/><path class="st30" d="M1134.4,731.8c0-7.9-0.3-15.7-0.9-23.4c9.8,22.4,20.2,54.5,20.5,89.6h0.1v107v5v3c0,6.6-5,12-11.6,12h-111&#10;&#9;&#9;&#9;c-6.1,0-11.2-4.6-11.9-10.6c1.3,0.1,2.6,0.1,3.9,0.1C1084.7,914.6,1134.4,832.7,1134.4,731.8z" style="fill: rgb(125, 199, 211);" transform="matrix(1, 0, 0, 1, -5.684341886080802e-14, 0)"/><path class="st28" d="M1019,910v-5V798c0-4.8-2.5-43.3,21.6-47.8c18.7-3.5,18-12,14-16.4c-3.2-3.6-14.1-3.8-13.1-14.1&#10;&#9;&#9;&#9;c0.9-10.3,15.8-6.3,15.6-17.2c-0.2-10.5-15.6-5.6-15.6-14.5c0-8.9,0.5-12,0.5-12h74.5c0,0,8.3,12.4,17,32.4&#10;&#9;&#9;&#9;c0.6,7.6,0.9,15.4,0.9,23.4c0,100.9-49.7,182.8-111,182.8c-1.3,0-2.8-0.1-4.1-0.1c-0.1-0.5-0.3-1-0.3-1.4V910z" style="fill: rgb(160, 212, 232);" transform="matrix(1, 0, 0, 1, -5.684341886080802e-14, 0)"/>
</svg>