<svg width="638" height="1211" viewBox="0 0 638 1211" fill="none" xmlns="http://www.w3.org/2000/svg">
<path d="M2 0V147C2 158.046 10.9543 167 22 167H568.5C579.546 167 588.5 175.954 588.5 187V516C588.5 527.046 579.546 536 568.5 536H239.5C228.454 536 219.5 544.954 219.5 556V641.5C219.5 652.546 210.546 661.5 199.5 661.5H78.5C67.4543 661.5 58.5 670.454 58.5 681.5V1009C58.5 1020.05 67.4543 1029 78.5 1029H616C627.046 1029 636 1037.95 636 1049V1211" stroke="black" stroke-opacity="0.2" stroke-width="3"/>
</svg>
