<svg width="621" height="808" viewBox="0 0 621 808" fill="none" xmlns="http://www.w3.org/2000/svg">
<path d="M21 0V87C21 98.0457 29.8702 107 40.9159 107C201.779 107 487.336 107 483.5 107C480.013 107 549.976 107 599.007 107C610.053 107 619 115.954 619 127V307.5C619 318.546 610.046 327.5 599 327.5H22C10.9543 327.5 2 336.454 2 347.5V642.5C2 653.546 10.9543 662.5 22 662.5H165.5C176.546 662.5 185.5 671.454 185.5 682.5V786.5C185.5 797.546 194.454 806.5 205.5 806.5H515.5" stroke="black" stroke-opacity="0.15" stroke-width="3"/>
</svg>
